<svg width="60" height="24" viewBox="0 0 60 24" fill="none" xmlns="http://www.w3.org/2000/svg">
<path d="M47.2972 24C39.5848 24 34.5945 19.2054 34.5945 12C34.5945 4.79464 39.5848 0 47.2972 0C55.0096 0 60 4.79464 60 12C60 19.2054 55.0096 24 47.2972 24ZM47.2972 17.5982C50.2327 17.5982 52.6612 15.5625 52.6612 12C52.6612 8.4375 50.2327 6.40179 47.2972 6.40179C44.3617 6.40179 41.9332 8.4375 41.9332 12C41.9332 15.5625 44.3617 17.5982 47.2972 17.5982Z" fill="black"/>
<path d="M21.4213 24C13.8691 24 8.82531 19.2054 8.82531 12C8.82531 4.79464 13.8691 0 21.4213 0C26.8921 0 32.4962 2.41071 33.2435 10.0179H26.1982C25.5844 7.55357 23.8498 6.40179 21.4213 6.40179C18.4858 6.40179 16.1641 8.59821 16.1641 12C16.1641 15.4018 18.4858 17.5982 21.4213 17.5982C23.8498 17.5982 25.5844 16.4464 26.1982 13.9286H33.2435C32.4962 21.5893 26.9454 24 21.4213 24Z" fill="black"/>
<path d="M3.68274 23.6786C1.68125 23.6786 0 22.0179 0 20.0357C0 18.0536 1.68125 16.3929 3.68274 16.3929C5.68423 16.3929 7.36547 18.0536 7.36547 20.0357C7.36547 22.0179 5.68423 23.6786 3.68274 23.6786Z" fill="black"/>
</svg>
