<svg width="194.000000" height="32.000000" viewBox="0 0 194 32" fill="none" xmlns="http://www.w3.org/2000/svg" xmlns:xlink="http://www.w3.org/1999/xlink">
	<desc>
			Created with Pixso.
	</desc>
	<defs>
		<clipPath id="clip22_367">
			<rect id="prada-logo-1 1" width="194.000000" height="32.000000" fill="white" fill-opacity="0"/>
		</clipPath>
	</defs>
	<rect id="prada-logo-1 1" width="194.000000" height="32.000000" fill="#FFFFFF" fill-opacity="0"/>
	<g clip-path="url(#clip22_367)">
		<path id="Vector" d="M0 0.9L2.93 4.2L2.93 28.41L0.75 31.57L14.06 31.59L11.66 28.68L11.42 19.96L24.25 20.03C28.14 18.74 32.14 15.98 32.33 10.39C32.27 4.99 28.97 1.52 25.13 0.83L0 0.9ZM10.94 2.44L10.94 17.99L20.79 18.06C23.03 16.26 24.72 14.87 24.66 10.54C24.62 7 23.88 3.92 20.58 2.45L10.94 2.44ZM38.49 0.72L41.42 4.03L41.42 28.23L39.25 31.4L52.56 31.42L50.16 28.5L49.91 19.79L49.96 19.79L63.71 31.52L75.12 31.42L64.71 22.41L56.01 22.41L52.95 19.8L62.74 19.86C66.63 18.56 70.63 15.8 70.82 10.22C70.76 4.81 67.46 1.34 63.62 0.65L38.49 0.72ZM49.43 2.27L49.43 17.82L59.28 17.89C61.52 16.08 63.22 14.7 63.15 10.36C63.12 6.82 62.37 3.74 59.08 2.27L49.43 2.27ZM86.11 0.69L97.58 0.69L112.52 28.41C113.17 30.55 115.1 30.28 116.39 31.22L101.93 31.22L104.1 30.54L103.97 28.48L100.23 22.5L87.53 22.57L84.82 28.34C84.73 28.99 84.03 29.49 84.55 30.31L85.57 31.29L79.32 31.15L82.04 30.31L92.29 8.71L92.29 7.23L87.96 1.45L86.11 0.69ZM88.34 20.59L93.61 10.61L99.1 20.54L88.34 20.59ZM163.71 0.75L175.19 0.75L190.12 28.47C190.77 30.61 192.7 30.34 194 31.28L179.53 31.28L181.7 30.6L181.57 28.54L177.83 22.56L165.14 22.63L162.42 28.4C162.33 29.05 161.63 29.55 162.15 30.37L163.17 31.35L156.92 31.21L159.64 30.37L169.89 8.77L169.89 7.29L165.56 1.51L163.71 0.75ZM165.94 20.65L171.21 10.67L176.7 20.6L165.94 20.65ZM120.36 0.4L140.81 0.51C147.39 2.05 151.58 6.07 152.88 13.09L152.82 18.56C151.62 24.81 147.69 29.13 140.75 31.31L120.25 31.37L120.25 30.71C123.37 30.47 123.62 30.11 123.62 28.26L123.62 3.33C123.59 1.96 123.32 1.11 120.31 1.02L120.36 0.4ZM131.98 2.53L131.96 29.51C134.66 29.52 137 29.77 138.32 29.1C141.31 27.73 142.71 25.63 142.83 23.65L142.76 7.73C142.76 5.18 140 3.38 138.4 2.91C137.26 2.49 134.98 2.47 131.98 2.53Z" fill="#FFFFFF" fill-opacity="1.000000" fill-rule="evenodd"/>
		<path id="Vector" d="M2.93 4.2L2.93 28.41L0.75 31.57L14.06 31.59L11.66 28.68L11.42 19.96L24.25 20.03C28.14 18.74 32.14 15.98 32.33 10.39C32.27 4.99 28.97 1.52 25.13 0.83L0 0.9L2.93 4.2ZM10.94 17.99L20.79 18.06C23.03 16.26 24.72 14.87 24.66 10.54C24.62 7 23.88 3.92 20.58 2.45L10.94 2.44L10.94 17.99ZM41.42 4.03L41.42 28.23L39.25 31.4L52.56 31.42L50.16 28.5L49.91 19.79L49.96 19.79L63.71 31.52L75.12 31.42L64.71 22.41L56.01 22.41L52.95 19.8L62.74 19.86C66.63 18.56 70.63 15.8 70.82 10.22C70.76 4.81 67.46 1.34 63.62 0.65L38.49 0.72L41.42 4.03ZM49.43 17.82L59.28 17.89C61.52 16.08 63.22 14.7 63.15 10.36C63.12 6.82 62.37 3.74 59.08 2.27L49.43 2.27L49.43 17.82ZM97.58 0.69L112.52 28.41C113.17 30.55 115.1 30.28 116.39 31.22L101.93 31.22L104.1 30.54L103.97 28.48L100.23 22.5L87.53 22.57L84.82 28.34C84.73 28.99 84.03 29.49 84.55 30.31L85.57 31.29L79.32 31.15L82.04 30.31L92.29 8.71L92.29 7.23L87.96 1.45L86.11 0.69L97.58 0.69ZM93.61 10.61L99.1 20.54L88.34 20.59L93.61 10.61ZM175.19 0.75L190.12 28.47C190.77 30.61 192.7 30.34 194 31.28L179.53 31.28L181.7 30.6L181.57 28.54L177.83 22.56L165.14 22.63L162.42 28.4C162.33 29.05 161.63 29.55 162.15 30.37L163.17 31.35L156.92 31.21L159.64 30.37L169.89 8.77L169.89 7.29L165.56 1.51L163.71 0.75L175.19 0.75ZM171.21 10.67L176.7 20.6L165.94 20.65L171.21 10.67ZM140.81 0.51C147.39 2.05 151.58 6.07 152.88 13.09L152.82 18.56C151.62 24.81 147.69 29.13 140.75 31.31L120.25 31.37L120.25 30.71C123.37 30.47 123.62 30.11 123.62 28.26L123.62 3.33C123.59 1.96 123.32 1.11 120.31 1.02L120.36 0.4L140.81 0.51ZM131.96 29.51C134.66 29.52 137 29.77 138.32 29.1C141.31 27.73 142.71 25.63 142.83 23.65L142.76 7.73C142.76 5.18 140 3.38 138.4 2.91C137.26 2.49 134.98 2.47 131.98 2.53L131.96 29.51Z" stroke="#FFFFFF" stroke-opacity="1.000000" stroke-width="1.024185"/>
	</g>
</svg>
